# xmcd
#
# Track frame offsets:
#	150
#	15871
#	35071
#	54865
#	77734
#	96085
#	117959
#	139273
#	156146
#	170401
#	186194
#
# Disc length: 2739 seconds
#
# Revision: 0
# Processed by: cddbd v1.5.1PL2 Copyright (c) Steve Scherf et al.
# Submitted via: dBpowerAMP V4.0
#
DISCID=830ab10b
DTITLE=John Mooney - Big Ol' Fiya
DYEAR=1900
DGENRE=Blues
TTITLE0=2 Get 2 Heaven
TTITLE1=Big Ol' Fiya
TTITLE2=Dig My Way 2 China
TTITLE3=Louise McGhee
TTITLE4=Kiss Me
TTITLE5=Do You Love Me?
TTITLE6=Drink A Little Poison (4 U Die)
TTITLE7=Been Workin' All Day Baby
TTITLE8=You Keep Me (Hangin' On)
TTITLE9=Real Life
TTITLE10=No Bout Me
EXTD=
EXTT0=
EXTT1=
EXTT2=
EXTT3=
EXTT4=
EXTT5=
EXTT6=
EXTT7=
EXTT8=
EXTT9=
EXTT10=
PLAYORDER=
